<svg id="Layer_1" data-name="Layer 1" xmlns="http://www.w3.org/2000/svg" viewBox="0 0 606.29 415.2"><defs><style>.cls-1{fill:#fff;}</style></defs><title>change-one-life-logo</title><path class="cls-1" d="M-607.88,120.23h26.41c1.11,14.68-.48,29.42,1,44.07l2.27-.06c9.61-14.9,19.8-29.4,29.84-44h25.1c0.76,27.46,0,54.93.42,82.4-0.28,2.23.42,6.51-2.7,6.76-7.82.75-15.7,0-23.54,0-1.4-10.9-.45-21.9-0.56-32.84a34.59,34.59,0,0,0-1.87-9.41c-5.64,6.24-9.79,13.59-14.58,20.46-3.7,5.25-7.21,10.63-10.76,16-1.76,2.4-3.67,5.35-6.9,5.73-4.85.61-9.74,0.25-14.61,0.35-3.09-.14-6.49.25-9.26-1.42a39,39,0,0,1-.55-8.51c0.36-26.51-.19-53,0.31-79.55h0Z" transform="translate(622.01 -120.23)"/><path class="cls-1" d="M-493.51,120.23h33.57c4.56,3.2,9.4,6.13,13.35,10.08,4.48,4.61,4.73,11.54,4.21,17.57-0.53,5.23-4.43,9.14-7.56,13,4.66,4.1,10.74,8,11.81,14.58,1.12,7.28.41,15.29-3.95,21.45-4.63,6.68-12.28,10.63-20,12.44a54.81,54.81,0,0,1-35.55-3c-8.44-4-14-12.07-16.9-20.71,7.68-2.65,16-4.15,24.06-2.89,3.84,1.69,6,5.76,9.79,7.55,5.72,2.58,13.4-.59,15.09-6.77,1.27-4.46-1.72-9.07-5.75-10.87-4.57-2-9.83-1.28-14.39-3.26-2.1-4.47-.7-9.53-0.19-14.2,4.13-.61,8.54-0.82,12.25-2.92,3.19-2,5.49-6.25,4-9.94-1.73-3.29-6-4.19-9.38-4-5.82.31-8.28,8-14.31,7.36-6.45-.3-12.77-1.81-19.12-2.84,0.74-3.67,1.3-7.66,3.9-10.56,4.24-4.91,9.75-8.5,15.08-12.11h0Z" transform="translate(622.01 -120.23)"/><path class="cls-1" d="M-426.95,120.23h35.71c3.44,8.7,4.9,18,7.62,26.94,2.25,7,2.15,15,7,21,3.31-6.12,4.37-13,6-19.71,2.59-9.4,4.83-18.92,7.81-28.21h33c2.91,7.36,1.88,15.41,2,23.12,0,18.82-.11,37.64.12,56.45-0.07,2.82,0,5.81-1.38,8.38-6.51,2.55-13.7,1.12-20.47.7-1-10.11-.33-20.26-0.5-30.39-0.21-7.91,1.2-16.06-1.54-23.69a84.92,84.92,0,0,0-5.27,15.12q-3.79,15.18-7.46,30.38c-0.83,2.79-1.41,5.89-3.46,8.09-4.2,1.67-8.88,1.26-13.31,1.16-2.38-.31-5.6-0.16-6.91-2.61-1.94-3.71-2.64-7.91-3.65-11.93-1.73-8-4.24-15.8-5.88-23.8a86.83,86.83,0,0,0-4.24-15,28.33,28.33,0,0,0-2,11.16c0.35,10.8,0,21.6.31,32.4-0.07,2.76.23,5.65-.74,8.29-0.43,1.58-2.31,1.25-3.57,1.5-6.37.39-12.75-.09-19.12-0.17a126.73,126.73,0,0,1-.7-18c0.09-14.8,0-29.59,0-44.39,0.07-8.94-.43-17.92.68-26.82h0Z" transform="translate(622.01 -120.23)"/><path class="cls-1" d="M-311.17,120.23h72.71c0.25,5.5.82,11,.26,16.53-0.24,1.4-.67,3.5-2.53,3.29-11.94.75-23.93-.33-35.87,0.23-2.17.28-5,.45-6.1,2.65a10.92,10.92,0,0,0-.19,8.38c0.9,2.49,4.09,2.34,6.27,2.66,9.91,0.32,19.84-.32,29.75,0,2.06,0.21,5.28.18,5.58,2.88a27.67,27.67,0,0,1-.31,13.31c-0.48,2-2.73,2.2-4.4,2.36-11,.63-22.15-0.87-33.12.43-4.24.26-4.75,5-4.52,8.35,0.21,2.46.31,6.08,3.34,6.68,6.33,1.81,13,.87,19.5,1,7.29,0.18,14.63-.58,21.89.25,3,0.15,2.65,3.66,2.86,5.8,0,4.36.44,8.86-.7,13.11-1.54,1.79-4.28,1.26-6.38,1.52-17.6-.15-35.2-0.14-52.8-0.06-4.68-.06-9.44.5-14-0.49-2.06-2.6-1.22-6.26-1.45-9.33,0.35-26.52-.15-53,0.27-79.56h0Z" transform="translate(622.01 -120.23)"/><path class="cls-1" d="M-222.56,120.23H-195c0.68,10.15-.14,20.35.77,30.5,8.48,0.42,17.15,1.5,25.55-.15,3.08-.41,2.48-4,2.74-6.24,0.1-8-.5-16.11.55-24.11h26.78c2.22,25.23.75,50.57,1.29,75.85-0.18,4.43.67,9.4-1.81,13.36-3.7,1.36-7.74.9-11.6,1-4.28-.14-8.7.36-12.87-0.82-2.3-.55-2.23-3.34-2.44-5.2-0.29-7.13.28-14.26,0.16-21.39a19.17,19.17,0,0,0-1.3-7.53c-8.85-2.52-18.35-1.24-27.36-.19-0.31,9.4,0,18.81,0,28.22-0.27,2.09.1,5.35-2.47,6.09-4.79,1.29-9.83.62-14.73,0.82-3.27-.12-6.74.3-9.84-1-1.89-2.08-1.56-5.21-1.76-7.81,0.18-18.21.07-36.42,0.1-54.64,0.07-8.94-.44-17.92.74-26.82h0Z" transform="translate(622.01 -120.23)"/><path class="cls-1" d="M-121.82,120.23h25.65c2.89,14.86,0,30.11,1.8,45.08,6.55-5.37,10-13.24,15-19.9,6-8.37,11.09-17.45,17.95-25.18h24.49c0.68,19.11.15,38.22,0.32,57.34-0.24,10.62.67,21.29-.68,31.86-7.81,0-15.68.79-23.47-.12-2.54,0-2.58-3-2.67-4.86-0.16-8.66.12-17.32,0.2-26a32.92,32.92,0,0,0-2-10.47c-6.49,5.75-10.34,13.62-15.53,20.44a141.81,141.81,0,0,0-9.72,15.36c-1.53,2.52-3.36,5.65-6.71,5.65-8.22.59-16.47,0-24.7,0a122.82,122.82,0,0,1-.69-18.9c0-15.1,0-30.21,0-45.31,0-8.32-.4-16.68.68-25h0Z" transform="translate(622.01 -120.23)"/><path class="cls-1" d="M-303.77,233.89c-0.08-2,.69-5.43,3.36-5,12.16,0.07,24.33,0,36.5,0,2.49-.19,3.57,2.93,3.52,5q0,21.82,0,43.65A113.42,113.42,0,0,0-246,278c10.36,0,20.72,0,31.09,0a34.89,34.89,0,0,0,.8-7.9c-0.09-13.28,0-26.57-.07-39.86a18.34,18.34,0,0,1,7-1.35c11.25,0.14,22.5-.07,33.75.08a3.74,3.74,0,0,1,3.73,4.31q0,66.35,0,132.69c0.47,3.33-3.38,4.3-5.94,4.36-10.21.09-20.43-.06-30.64,0.07-2.63,0-5.72,0-7.6-2.15a25.76,25.76,0,0,1-.3-4.7c0.09-15.44,0-30.89.07-46.33,0.19-1.89-.93-4.43-3.17-4.11-9.27-.16-18.53,0-27.79,0-5.11.06-10.27-.35-15.32,0.62,0,16.94,0,33.88,0,50.83,0.09,2.3-.74,5.13-3.34,5.59-4.54.65-9.16,0.1-13.73,0.26-8.5-.31-17.09.72-25.52-0.68a35.51,35.51,0,0,1-.8-7.06q0-64.34,0-128.68h0Z" transform="translate(622.01 -120.23)"/><path class="cls-1" d="M-160.73,228.88c15,0,30,.06,45,0a44.24,44.24,0,0,1,3.69,6.92c4.6,13.44,9.26,26.86,13.48,40.41,0.56,2.11,2.57,3.31,4.4,4.23,4.51-12.55,8.42-25.31,12.82-37.91C-79.84,238-79,233-75.9,229.25a16.42,16.42,0,0,1,4.62-.42c11.12,0.08,22.22.06,33.34,0,1.43,0.12,3.23-.31,4.2,1.06,0.77,4.42-1.8,8.29-3.43,12.17-13.27,31.42-26.86,62.7-40,94.15-2.65,5.89-5.59,11.65-8.51,17.41a34.18,34.18,0,0,1-29.89,17.68c-7.4-.13-14.86.51-22.2-0.67-3.41-.43-6.88,0-10.26-0.57-1.59-1.46-1.32-3.71-1.39-5.66,0-8.07,0-16.15,0-24.23,7.25-1,14.5,1.79,21.74.19,4.44-1,8.85-3.71,10.63-8,0.88-4.81-2.26-9.07-4.06-13.29-12-25.66-23.69-51.47-35.66-77.15-1.71-4.18-5.36-8.21-3.94-13h0Z" transform="translate(622.01 -120.23)"/><path class="cls-1" d="M-473.92,289.5c0.26-6.1-2-11.89-3.15-17.81a60,60,0,0,0-40.25-41.07c-8-2.91-16.59-3.35-25-3.72a20.43,20.43,0,0,0-8.47,0c-12.36.35-25,2.4-35.88,8.57-7,3.75-12.8,9.38-18.1,15.24a59.33,59.33,0,0,0-11.45,23.73c-1.19,5.09-2.94,10.14-3,15.42-0.07,6.48-.08,13,0,19.46,0,4.8,1.56,9.4,2.68,14a60.56,60.56,0,0,0,6.84,17.26c4.07,6.22,8.44,12.44,14.41,17a69.28,69.28,0,0,0,25.95,12c9.89,2.26,20.08,1.69,30.15,1.75,12.64,0.43,25.13-3.59,36-9.83,9-5.22,16-13.37,21-22.34,4.28-8.18,6.21-17.32,8-26.32C-473.63,305.09-474.11,297.29-473.92,289.5ZM-518,303c-0.45,7.59-.83,15.53-4.69,22.32C-526.81,333.7-536.11,338-545,339c-3.54.3-7-.75-10.33-1.79-6.82-1.84-12.25-7.23-15.39-13.42-2.79-5.2-3.06-11.21-4.35-16.85-1-3.65.52-7.31,0.28-11-0.25-5.44.83-10.8,2.11-16.05,2.9-10.23,12-18.55,22.79-19.51,9.28-1,19.35,2.65,25,10.27a30.1,30.1,0,0,1,6,15.22C-518.38,291.52-516.5,297.25-518,303Z" transform="translate(622.01 -120.23)"/><path class="cls-1" d="M-314.82,361.6c0.12-6.18-.44-12.4.62-18.52,0.43-2.4.33-5.25-1.9-6.77-3.14-.41-6.32,0-9.45-0.33-1.51-.41-3.42-1.4-3.2-3.24q-0.05-45.68,0-91.36c-0.07-3.4.3-6.84-.28-10.21-1.79-3-5.56-2.23-8.49-2.32-32.38.08-64.76,0-97.14,0-3.44.06-6.91-.26-10.33,0.19a6.91,6.91,0,0,0-2.13,5.75c0,13,0,26,0,39,0.29,8.81-2.4,17.37-2.86,26.13a47.89,47.89,0,0,1-2,11.13c-1.57,5.34-2.13,10.92-4.05,16.16-1.13,2.93-1.49,6.35-3.71,8.74-4.31.44-8.66,0.13-13,.19a94.39,94.39,0,0,0-.41,12.53c0,12.48,0,25,0,37.44,11.72,0,23.43.07,35.15,0,0.28-5.26-.83-10.78,1.35-15.78q37.47,0.08,74.93,0c3.8,0.16,8.6-2.41,11.45,1.29,0.48,4.83-.22,9.73.6,14.55,11.53,0,23.06,0,34.61,0,0.51-2.58,1.16-5.21.65-7.84C-315.22,372.74-314.72,367.15-314.82,361.6ZM-373.31,335c-1.64,1.35-3.85,1-5.81,1.13-10.83-.09-21.65,0-32.47,0-1.85.19-4.6-.92-4.12-3.21,0.89-6.88,3.75-13.36,4.32-20.31,0.56-7.54,2.76-14.83,3.44-22.35,0.89-4.86.2-9.81,0.92-14.68a63.64,63.64,0,0,0,.53-11c6.14-2.1,12.66-1.24,19-1.38,3.7,0,7.41-.18,11.1.07a4,4,0,0,1,3.07,2,66.63,66.63,0,0,1,.23,8.49q0,25.91,0,51.81A77.46,77.46,0,0,1-373.31,335Z" transform="translate(622.01 -120.23)"/><path class="cls-1" d="M-316,400.68c9.22-4,19.51-3.94,29.37-3.34,10.2,0.76,20.59,4.73,27.47,12.55,10,10.63,11.47,27.72,4.66,40.4-2.18,3.5-4.77,6.73-7.09,10.14,4.74,3.49,10,6.85,12.64,12.36,4.64,8.16,3.81,17.88,3.3,26.88-1.9,12.21-9.12,23.85-19.94,30.08-6.11,3.51-13,6-20.18,5.6-8.47-.34-17.36,1.19-25.42-2.13a41.06,41.06,0,0,1-16.53-10.4c-5.47-5.5-9-12.55-11.64-19.75a26.61,26.61,0,0,1-1.17-8.09c5.28-.72,10.63-0.71,15.94-1,5-.29,10.06-1.35,15-0.43,3.47,3.35,4.85,8.63,9.23,11.07,5.27,2.63,12.55,2.39,16.75-2.11,3.81-3.94,4.36-10,3.38-15.1s-5.15-9.45-10-11.49c-4.57-1.86-9.75-.49-14.34-2.21-1.45-.78-1.1-2.59-1.28-3.93-0.07-4.92-.15-9.84.07-14.75,0.1-1.7.37-4,2.32-4.56,4-1.29,8.47-.67,12.22-2.72a15.52,15.52,0,0,0,6.71-13.13c-0.14-4.81-4-9.57-8.94-9.89-3-.24-6.35-0.19-8.85,1.74-3.06,2.38-4.24,6.27-6.63,9.19-4.72,1.32-9.7,0-14.45-.56-4.82-.91-10-1-14.41-3.18-1-2.63-.49-5.56.44-8.12,3.87-10,11-19.24,21.28-23.15h0Z" transform="translate(622.01 -120.23)"/><path class="cls-1" d="M-619.05,400.86c0.31-2.3,3.14-2.31,4.91-2.58a66.48,66.48,0,0,1,24.17,3A21.43,21.43,0,0,1-576.7,412.1c5,10.16,7.25,21.42,11.64,31.83,1,2.72,3.5,4.39,5.72,6.06a29.77,29.77,0,0,0,1.46-8.81c-0.16-11.13-.06-22.25-0.17-33.37,0.23-2.55-.18-5.83,2-7.68,3.33-1.33,7-.77,10.46-0.55,7.11,0.74,14.24-.71,21.36,0a53.18,53.18,0,0,1,1.25,10.1c-0.16,11.12,0,22.22-.17,33.34-0.18,2.61,1,5,2.26,7.19,2.24-2.15,4.59-4.35,5.73-7.32,3.58-9,5.73-18.5,9.57-27.39,2.75-6.33,7.58-12.31,14.52-14.17,9.33-2.59,19.46-4.59,29-2.13,1.43,2.27,1.17,5.09,1.28,7.66-0.09,5.23.12,10.48-.13,15.71-0.19,1.65-.23,4.1-2.24,4.57-4.06,1.53-9.06,1.26-12.23,4.67-6.91,7-6.59,17.84-12.48,25.44-1.69,2.5-4.27,4.62-4.86,7.71,2.84,3.62,7.2,5.77,9.73,9.69,7.7,11.4,11.95,24.61,17.29,37.18,2.43,7,6.7,13.46,7.57,21-10,.89-20.13.19-30.19,0.5-2.86-.17-6.59.45-8.43-2.31-2.39-3.57-3.36-7.84-5-11.75-4.09-9.88-7.22-20.13-11.65-29.87-1.56-2.77-3.1-6.39-6.43-7.32-3.12-.75-3.13,3.18-3.28,5.29,0,12.34,0,24.66.13,37-0.07,2.56,0,5.25-1,7.66-1.32,1.78-3.9,1-5.82,1.31-8.27-.25-16.55.19-24.81-0.18-3.12.1-3.12-3.74-3.31-6-0.07-10.51.07-21,0-31.54-0.09-4.09.46-8.25-.41-12.27-0.72-1.8-3.38-1.74-4.49-.35-3.59,3.67-5.34,8.65-7.26,13.3-3.25,8.14-6.21,16.38-9.34,24.56-1.37,3.5-2.25,7.32-4.63,10.32-1.84,2.32-5.1,2-7.73,2.1-10.07-.12-20.13-0.09-30.19,0,0.3-7.35,4.05-13.84,6.57-20.58,5.83-13.06,10-27,18.5-38.73,2.47-3.67,6.91-5.81,8.86-9.75-1.87-4.08-5.35-7.14-7.28-11.18-3.64-7.24-4.34-16.19-10.59-21.93-3.46-3.42-9-2.2-12.84-4.73-0.94-4-.5-8.07-0.58-12.11,0.12-4.48-.32-9,0.31-13.45h0Z" transform="translate(622.01 -120.23)"/><path class="cls-1" d="M-448.71,399.44c3.71-.77,7.52-0.39,11.27-0.4,5.22,0.14,10.44-.25,15.65.06,1.68,0.13,3.81.51,4.49,2.31,0.9,2.32.68,4.87,0.74,7.32-0.23,16,.08,32.09-0.19,48.13a35.19,35.19,0,0,0,1.29,8.65,25,25,0,0,0,5.38-6.28c8.74-16.41,18.15-32.47,27-48.82,1.75-3.16,3.08-6.62,5.43-9.41,1.91-2.13,5-1.89,7.64-2,6.2,0.07,12.4,0,18.6,0,2.24,0.14,5.17,0,6.52,2.18,1.43,3.25,1.05,6.91.86,10.36-0.54,6.15-.29,12.33-0.31,18.49,0,17.27,0,34.52,0,51.79-0.08,7.41,1.2,14.8.31,22.19-1.1,9.45.8,18.92-.36,28.36a168.78,168.78,0,0,1-31.84.2,96.88,96.88,0,0,1-.62-11.92c0.2-16-.11-32.09.19-48.13a24.36,24.36,0,0,0-1.53-7.87c-4.95,6.09-7.65,13.58-11.8,20.18q-9.28,17-18.89,33.83c-2.36,4.12-4.22,8.55-7.15,12.31-1.45,2.15-4.25,2.1-6.56,2.19-5.87,0-11.75-.15-17.63,0-2.91,0-6,.21-8.71-1A7.87,7.87,0,0,1-450,528c0-40.06.11-80.12,0-120.18,0.13-2.79-.29-5.92,1.37-8.37h0Z" transform="translate(622.01 -120.23)"/><path class="cls-1" d="M-237.09,402.71c0.32-2.34,3-3,4.94-3.25,5.24-.65,10.48.7,15.74,0.26,4.24-.12,8.87-1.18,12.84.85,2.33,1.93,2.05,5.41,2.28,8.16-0.11,9.28.19,18.56-.55,27.81,0.11,2.88-.2,6.91,2.76,8.5,4.8,1.74,10,.86,15,1,5.31-.19,10.84.74,16-1,2.29-.87,2.14-3.68,2.27-5.69,0.11-11.13-.29-22.28,0-33.4,0.39-2.18.39-5.85,3.21-6.2,5.13-1.1,10.35.38,15.53,0,5-.14,10.54-1.41,15.08,1.33,1.67,4.84.85,10.07,1,15.09,0,35.76-.07,71.52,0,107.28-0.06,3-.38,6-0.7,9.05-8.17,1.36-16.45.53-24.67,0.82-2.88-.12-6,0.32-8.61-1.24-1.21-3.36-1-7-1-10.5,0.13-11.73,0-23.45.12-35.18-0.07-2.43,0-6.08-3.09-6.67-5.61-.9-11.34-0.17-17-0.38-4.33.12-8.78-.54-13,0.58-2.81.82-2.34,4.18-2.5,6.46,0.1,12.35,0,24.71.14,37.06,0,2.82,0,5.76-1.21,8.38-2,1.75-4.95,1.32-7.43,1.48-7.35-.17-14.7.14-22.06-0.1-2.51,0-5.85-1.2-5.37-4.29-0.06-37.89,0-75.79,0-113.67,0-4.17-.36-8.39.28-12.52h0Z" transform="translate(622.01 -120.23)"/><path class="cls-1" d="M-16.15,485.79c-1.65-10.18-6-20.79-14.89-26.68-10.14-6.71-22.69-8.62-34.64-8.19-4.63-.11-9.4.62-13.93-0.54-2.8-.8-2.33-4.15-2.48-6.42q0.08-18.09.1-36.18c-0.22-2.63-.15-6.19-2.88-7.56-4.52-1.78-9.42-.43-14.11-0.47-5.23.22-10.74-1.46-15.74,0.67-2.25,1.65-2.05,4.86-2.26,7.37,0.15,33.92,0,67.85.07,101.77,0.06,7.62-.44,15.29.6,22.87,8.19,1.17,16.48.52,24.72,0.65,13.26,0,26.52.07,39.78,0,13.69-.29,27.71-8.09,33-21.09C-14.87,503.83-15.63,494.53-16.15,485.79ZM-53.7,500.3c-4.27,4.42-10.92,4.2-16.6,4.23-3.69-.18-7.76.46-11.1-1.45-1.61-1.68-1.26-4.27-1.42-6.41,0.12-5.4-.39-10.85.31-16.21,0-1.17,1.56-1.33,2.43-1.64,6-.68,12.11-0.3,18.15-0.29,4.95-.17,8.87,3.63,11.27,7.56C-47.92,490.79-50.4,496.6-53.7,500.3Z" transform="translate(622.01 -120.23)"/></svg>