<svg id="Layer_2" data-name="Layer 2" xmlns="http://www.w3.org/2000/svg" viewBox="0 0 332.57 270.28"><defs><style>.cls-1{opacity:0.22;}.cls-2{fill:none;stroke:#fff;stroke-miterlimit:10;stroke-width:3px;}.cls-3{fill:#787a7c;opacity:0.5;}.cls-4{font-size:71.65px;fill:#fff;font-family:Roboto;}</style></defs><title>icon-heart-93</title><g id="Layer_1" data-name="Layer 1" class="cls-1"><line class="cls-2" x1="330.74" y1="129.66" x2="186.55" y2="133.51"/><line class="cls-2" x1="51.08" y1="2.06" x2="38.37" y2="108.96"/><line class="cls-2" x1="81.92" y1="195.84" x2="81.92" y2="92.16"/><line class="cls-2" x1="165.07" y1="58.4" x2="186.55" y2="133.51"/><line class="cls-2" x1="186.55" y1="133.51" x2="81.92" y2="195.84"/><line class="cls-2" x1="186.55" y1="133.51" x2="165.1" y2="268.31"/><line class="cls-2" x1="186.55" y1="133.51" x2="243.17" y2="202.96"/><line class="cls-2" x1="256.94" y1="97.27" x2="274.95" y2="2.06"/><line class="cls-2" x1="165.07" y1="58.4" x2="330.74" y2="129.66"/><line class="cls-2" x1="1.79" y1="124.69" x2="165.07" y2="58.4"/><line class="cls-2" x1="165.07" y1="58.4" x2="81.92" y2="195.84"/></g><polygon class="cls-2" points="330.75 129.66 274.95 2.06 165.07 58.4 51.14 2.06 1.79 124.69 165.1 268.31 330.75 129.66"/><polygon class="cls-3" points="165.1 266.31 3.79 124.69 24.62 73.7 304.62 73.7 328.75 129.66 165.1 266.31"/><text class="cls-4" transform="translate(110.07 140.61)">93%</text></svg>