<svg id="Layer_2" data-name="Layer 2" xmlns="http://www.w3.org/2000/svg" viewBox="0 0 226.99 191.18"><defs><style>.cls-1,.cls-2,.cls-3,.cls-4{fill:none;stroke:#fff;stroke-miterlimit:10;}.cls-1{stroke-width:2px;}.cls-2{stroke-width:0.5px;}.cls-3{stroke-width:1.5px;}</style></defs><title>icon-result</title><rect class="cls-1" x="1" y="1" width="224.99" height="151.99" rx="9" ry="9"/><line class="cls-2" x1="1" y1="125.39" x2="225.99" y2="125.39"/><line class="cls-2" x1="104.1" y1="21.79" x2="206.63" y2="21.79"/><line class="cls-2" x1="104.1" y1="35.5" x2="206.63" y2="35.5"/><line class="cls-2" x1="104.1" y1="48.5" x2="206.63" y2="48.5"/><path class="cls-1" d="M-304.34,610l-2.41,8.39a51.08,51.08,0,0,1-9.7,18.39L-325,647.18h88.4l-8.85-10.55a51.08,51.08,0,0,1-9.78-18.1l-2.57-8.54h-46.5Z" transform="translate(394.34 -457)"/><circle class="cls-2" cx="113.49" cy="137.89" r="4.5"/><path class="cls-3" d="M-318.61,514.26a45.64,45.64,0,0,1,.2,8.43,28.35,28.35,0,0,0,2-4.43,38.94,38.94,0,0,0,.27-25.75c-1.39-4.08-5.54-10-18.44-12.77-16.06-3.48-22.2,3.87-22.2,3.87s-10.28-.66-13.66,11.52c0,0.17-.09.34-0.13,0.51-3.47,13.45,3.26,26.35,3.26,26.35a131,131,0,0,1,1.07-15.33c-0.22,3.49-.22,7.26-0.22,11.21a46.72,46.72,0,0,0,.34,5.63,39.51,39.51,0,0,0,6.5,17.81l0.37,0.51c0.46,0.62.94,1.23,1.43,1.8h0c4.15,4.84,9.48,7.76,15.29,7.76,5.3,0,10.2-2.43,14.17-6.53h0a29.6,29.6,0,0,0,2.54-3l0.17-.23h0A39.32,39.32,0,0,0-319,523.48a46.88,46.88,0,0,0,.34-5.63C-318.66,516.64-318.64,515.44-318.61,514.26Z" transform="translate(394.34 -457)"/><path class="cls-3" d="M-378.17,565.64h70.62c-7.27-3.77-19.39-8.37-20.13-8.8a6.68,6.68,0,0,1-2.38-5.68c-2.82,3-7.18,4.91-14.55,4.88-4.07-.48-8.83-2.71-11.29-5.32a8.32,8.32,0,0,1-2.13,6.12C-358.78,557.27-370.9,561.88-378.17,565.64Z" transform="translate(394.34 -457)"/><path class="cls-4" d="M-290.24,550c1.45,0,3.19.43,3.88,1.33l1.65,2c0.69,0.91,1.42.73,1.63-.29l1.43-7c0.21-1,.7-1.06,1.09-0.07l1.64,4.15c0.39,1,.84,1,1-0.06l2.49-14.72c0.16-1,.36-1,0.45,0l2.3,23.72c0.09,1,.31,1,0.48,0l2.65-14.39c0.17-1,.56-1,0.86,0l1.54,5.23c0.3,1,.8,1,1.12,0l0.82-2.59c0.32-1,1-1,1.47-.07l0.19,0.69A4.44,4.44,0,0,0-260,550h4.82c1.45,0,3.12.45,3.72,1.39l1.53,2.22c0.6,0.94,1.33.8,1.62-.21l2-7.22c0.29-1,.81-1,1.17,0l1.54,4.28c0.36,1,.72,1,0.8-0.06l2.32-27.35c0.08-1,.19-1,0.24,0l2.44,46.67c0.05,1,.19,1,0.31,0l3.07-25.31c0.12-1,.49-1,0.83,0l1.62,4.79c0.34,1,.91,1,1.27,0l0.89-2.47c0.36-1,1-1,1.35,0l0.35,1.23a3.93,3.93,0,0,0,3.33,2.12h5.47c1.45,0,3,.48,3.52,1.45l1.29,2.41c0.49,1,1.06.85,1.28-.17l1.63-7.81c0.21-1,.76-1.07,1.22-0.1l1.62,3.43c0.46,1,1,.93,1.1-0.09l2.1-13.63c0.14-1,.34-1,0.43,0l2.29,22.94c0.09,1,.33,1,0.53,0l2.79-13.15c0.2-1,.69-1,1.09-0.06l1.6,3.9c0.4,1,1,1,1.26,0l0.47-1.65c0.29-1,.94-1,1.45-0.08l0.12,0.55A4.54,4.54,0,0,0-190,550" transform="translate(394.34 -457)"/></svg>