<svg id="Layer_2" data-name="Layer 2" xmlns="http://www.w3.org/2000/svg" viewBox="0 0 124 115"><defs><style>.cls-1{fill:#fff;}.cls-2,.cls-3{fill:none;stroke:#fff;stroke-miterlimit:10;stroke-width:2px;}.cls-3{fill-rule:evenodd;}</style></defs><title>icon-check-3</title><path class="cls-1" d="M1089,682.28h-15a1,1,0,0,0,0,2h15A1,1,0,0,0,1089,682.28Z" transform="translate(-1032 -640.78)"/><path class="cls-1" d="M1114,682.28h-15a1,1,0,0,0,0,2h15A1,1,0,0,0,1114,682.28Z" transform="translate(-1032 -640.78)"/><path class="cls-1" d="M1084,687.28h-5a1,1,0,0,0,0,2h5A1,1,0,0,0,1084,687.28Z" transform="translate(-1032 -640.78)"/><path class="cls-1" d="M1109,687.28h-5a1,1,0,0,0,0,2h5A1,1,0,0,0,1109,687.28Z" transform="translate(-1032 -640.78)"/><path class="cls-1" d="M1099.71,707.58a1,1,0,0,0-1.41,0,6.76,6.76,0,0,1-4.42,1.94,5.86,5.86,0,0,1-4.17-1.94,1,1,0,1,0-1.41,1.41,7.74,7.74,0,0,0,5.54,2.52,8.69,8.69,0,0,0,5.87-2.52A1,1,0,0,0,1099.71,707.58Z" transform="translate(-1032 -640.78)"/><polyline class="cls-2" points="29.35 1 1 1 1 29.35"/><polyline class="cls-2" points="1 85.66 1 114 29.35 114"/><polyline class="cls-2" points="94.66 1 123 1 123 29.35"/><polyline class="cls-2" points="123 85.66 123 114 94.66 114"/><path class="cls-1" d="M1079.48,717.06c5.25,4.72,10.24,7.21,14.42,7.21s9.25-2.52,14.6-7.29l3.76-4c1.86-2,3.46-3.69,3.58-3.84a20.92,20.92,0,0,0,3.95-9.66l0-.22L1120,697c0-.17,0-17.32,0-17.5V668.17a15.89,15.89,0,0,0-15.89-15.89H1083.9a15.91,15.91,0,0,0-15.9,15.89l0,29.1,0.16,2,0,0.22a20.91,20.91,0,0,0,3.95,9.66c0.17,0.22,1.72,1.9,3.36,3.66Zm-9.21-51.59a13.92,13.92,0,0,1,13.63-11.19h20.21A13.87,13.87,0,0,1,1118,667.48v0.17l-0.16.07c-2.09.94-9.45,4-16.61,4-4.88,0-8.75-1.4-11.5-4.15-3.14-3.14-6.6-4.74-10.27-4.74a16.29,16.29,0,0,0-8.78,2.89l-0.5.33Zm23.63,56.81c-9.17,0-19.7-13.74-20.14-14.32a18.91,18.91,0,0,1-3.76-11.28v-28l0.08-.07c1-.89,4.64-3.8,9.22-3.8,3.21,0,6.23,1.4,9,4.15,3.16,3.16,7.52,4.76,13,4.76,6.62,0,13.12-2.35,16.41-3.75l0.35-.15v26.83c0,0.44,0,.9-0.06,1.4-0.2,1.26-.26,2-0.31,2.49-0.12,1.2-.14,1.27-1.24,3.69a18.68,18.68,0,0,1-2.14,3.7C1113.09,709.43,1102.8,722.28,1093.9,722.28Z" transform="translate(-1032 -640.78)"/><path class="cls-3" d="M1107.6,716.32c-0.06,4.28-.14,18.38,14,20.46a60.41,60.41,0,0,1,22.14,8.22" transform="translate(-1032 -640.78)"/><path class="cls-3" d="M1044.14,745a60.41,60.41,0,0,1,22.14-8.22c14.12-2.08,14-16.19,14-20.46" transform="translate(-1032 -640.78)"/></svg>