<svg id="Capa_1" data-name="Capa 1" xmlns="http://www.w3.org/2000/svg" viewBox="0 0 55.33 62.41"><defs><style>.cls-1{fill:#fff;stroke:#fff;stroke-miterlimit:10;}</style></defs><title>icon-check-2</title><path class="cls-1" d="M582.66,628.54H565.23l-8.68-8.72L544.64,631.7,549,636,536.2,648.83l-0.58-.19a5.14,5.14,0,0,0-5.12,1.21,5,5,0,0,0,0,7.08,5.08,5.08,0,0,0,5.12,1.21l0.58-.19,13.32,13.31-1.53.47a9.92,9.92,0,0,0-6.32,9.3h19.69V680.8a9.9,9.9,0,0,0-9.85-9.72,9.64,9.64,0,0,0-1.26.08l-0.49.06L536.45,657.9l0.82-.7,0.3-.28a5,5,0,0,0,1.4-4.33,5.13,5.13,0,0,0-1.07-2.36,4.32,4.32,0,0,0-.63-0.65l-0.83-.7,12.68-12.68,4.23,4.23,0,17.42,9.25-9.21,0.7,0.54A7.6,7.6,0,0,0,574,638.51l-0.54-.7Zm-31.14,42.75a9.65,9.65,0,0,1,9.56,8.4l0.08,1.13H541.89l0.07-1.13A9.66,9.66,0,0,1,551.52,671.29ZM537.42,650a4.79,4.79,0,1,1-3.39-1.4A4.8,4.8,0,0,1,537.42,650Zm16-9.77-8.52-8.52,11.57-11.57,8.52,8.52ZM574,638.9a7.39,7.39,0,0,1-10.3,10.3l-1-.69,10.58-10.58Zm-20.47,18.51,0-17,11.66-11.66,17,0Z" transform="translate(-528.53 -619.12)"/></svg>