<?xml version="1.0" encoding="utf-8"?>
<!-- Generator: Adobe Illustrator 19.2.0, SVG Export Plug-In . SVG Version: 6.00 Build 0)  -->
<svg version="1.1" id="Layer_1" xmlns="http://www.w3.org/2000/svg" xmlns:xlink="http://www.w3.org/1999/xlink" x="0px" y="0px"
	 viewBox="0 0 115.8 142.1" style="enable-background:new 0 0 115.8 142.1;" xml:space="preserve">
<style type="text/css">
	.st0{fill:none;stroke:#FFFFFF;stroke-width:2;stroke-miterlimit:10;}
	.st1{fill:none;stroke:#FFFFFF;stroke-width:0.5;stroke-miterlimit:10;}
</style>
<title>icon-camera</title>
<path class="st0" d="M61.7,1c2.3,0.3,4.7,0.6,7,1.1c18.7,3.9,32.2,14.5,40.6,31.6c4.6,9.4,6.3,19.9,5.1,30.3
	c-2.6,24.1-20.2,44-43.9,49.4c-30.8,7.2-62.2-13-68.4-44C-4,39.6,14.3,10.3,43.7,2.8c3-0.8,6.2-1.1,9.3-1.6C53.4,1.1,53.7,1,54,1
	L61.7,1L61.7,1z M5.9,141.1c-2.1-0.6-3.8-2.1-4.5-4.2c-1-2.5-0.2-5.3,1.9-6.9c5.5-5,11.7-9.1,18.4-12.1l6.3-2.6
	c0.8-0.4,1.8-0.3,2.5,0.2c5.9,3.3,12.2,5.7,18.8,7c9.8,1.8,19.1,0.3,28.2-3.4c2.5-1,4.9-2.3,7.3-3.4c0.6-0.3,1.3-0.3,1.9-0.1
	c9.1,3.6,17.6,8.3,25.5,14.2c2.8,2.1,3.4,6,1.3,8.8c-0.7,0.9-1.6,1.6-2.6,2l-0.8,0.4h-2.5l-2.4-1c-11.5-4.8-23.8-7.6-36.3-8.3
	c-13.1-0.6-26.2,0.3-39,2.7c-7.5,1.3-14.9,3.5-21.9,6.5C8,140.9,5.9,141.1,5.9,141.1z"/>
<path class="st1" d="M36,66.7c0-12.1,9.8-21.9,21.9-21.9s21.9,9.8,21.9,21.9c0,12-9.8,21.8-21.8,21.8C45.9,88.6,36,78.8,36,66.7z
	 M71,66.7c0-7.2-5.8-13-13-13.1c-7.3-0.1-13.2,5.8-13.2,13v0.3c0.1,7.2,5.9,13,13.1,13C65.2,79.8,71.1,73.9,71,66.7z M57.8,36
	c-16.9,0-30.6,13.8-30.6,30.7s13.7,30.6,30.6,30.6s30.6-13.7,30.6-30.6C88.5,49.7,74.8,36,57.8,36z M53.5,14c0,2.4,1.9,4.4,4.2,4.5
	c2.4,0.1,4.4-1.9,4.5-4.3v-0.1c0-2.4-1.9-4.3-4.3-4.4C55.6,9.7,53.6,11.6,53.5,14z"/>
</svg>
