<?xml version="1.0" encoding="UTF-8" standalone="no"?>
<svg width="97px" height="89px" viewBox="0 0 97 89" version="1.1" xmlns="http://www.w3.org/2000/svg" xmlns:xlink="http://www.w3.org/1999/xlink">
    <!-- Generator: Sketch 3.7 (28169) - http://www.bohemiancoding.com/sketch -->
    <title>icon-mac</title>
    <desc>Created with Sketch.</desc>
    <defs></defs>
    <g id="Page-1" stroke="none" stroke-width="1" fill="none" fill-rule="evenodd">
        <g id="icon-mac" transform="translate(1.000000, 0.000000)">
            <g id="Page-1">
                <polygon id="Fill-1" fill="#FFFFFF" points="51.781 88.335 52.781 88.335 52.781 80.924 51.781 80.924"></polygon>
                <g id="Group-10" transform="translate(43.000000, 30.460000)" fill="#FFFFFF">
                    <path d="M26.9306,29.067 L26.9266,29.067 C25.5496,29.067 24.2166,28.662 23.0686,27.895 L19.3406,25.415 C17.3996,24.117 16.2416,21.951 16.2416,19.62 L16.2416,6.962 C16.2416,3.632 19.7916,1.625 22.2806,1.731 L26.9306,1.731 L26.9306,0.731 L21.5606,0.731 C19.9786,0.731 15.2416,2.463 15.2416,6.962 L15.2416,19.62 C15.2416,22.287 16.5656,24.765 18.7846,26.247 L22.5136,28.728 C22.5726,28.766 22.6336,28.801 22.6936,28.835 L24.3176,29.804 L3.3146,35.757 C1.5316,36.353 0.3196,37.98 0.3196,39.801 L0.3196,57.875 L1.3196,57.875 L1.3196,39.801 C1.3196,38.437 2.2606,37.167 3.6066,36.712 L26.9296,30.101 L26.9306,30.101 L26.9306,29.067 Z" id="Fill-4"></path>
                    <polygon id="Fill-6" points="42.471 57.875 43.471 57.875 43.471 50.464 42.471 50.464"></polygon>
                    <path d="M26.3214,29.067 L26.3254,29.067 C27.7024,29.067 29.0354,28.662 30.1834,27.895 L33.9114,25.415 C35.8524,24.117 37.0104,21.951 37.0104,19.62 L37.0104,6.962 C37.0104,3.632 33.4604,1.625 30.9714,1.731 L26.3214,1.731 L26.3214,0.731 L31.6914,0.731 C33.2734,0.731 38.0104,2.463 38.0104,6.962 L38.0104,19.62 C38.0104,22.287 36.6864,24.765 34.4674,26.247 L30.7384,28.728 C30.6794,28.766 30.6184,28.801 30.5584,28.835 L28.9344,29.804 L49.9374,35.757 C51.7204,36.353 52.9324,37.98 52.9324,39.801 L52.9324,57.875 L51.9324,57.875 L51.9324,39.801 C51.9324,38.437 50.9914,37.167 49.6454,36.712 L26.3224,30.101 L26.3214,30.101 L26.3214,29.067 Z" id="Fill-8"></path>
                </g>
                <text id="40-см" font-family="GillSans-Light, Gill Sans" font-size="17.5915" font-weight="300" fill="#FFFFFF">
                    <tspan x="11.7915" y="26.5267017">40 см</tspan>
                </text>
                <path d="M42.7524,54.1486 C41.8164,54.1486 41.0574,53.3896 41.0574,52.4536 C41.0574,51.5176 41.8164,50.7586 42.7524,50.7586 C43.6884,50.7586 44.4474,51.5176 44.4474,52.4536 C44.4474,53.3896 43.6884,54.1486 42.7524,54.1486 Z" id="Stroke-11" stroke="#FFFFFF"></path>
                <g id="Group-19" transform="translate(0.000000, 0.460000)" stroke="#FFFFFF" stroke-width="1.25">
                    <path d="M49.101562,57.4712016 C32.7278011,57.4712016 5.8836,57.4712 5.8836,57.4712 C2.9296,57.4712 0.5116,55.0542 0.5116,52.0992 L0.5116,5.5892 C0.5116,2.6352 2.9296,0.2172 5.8836,0.2172 L79.8896,0.2172 C82.8446,0.2172 85.2616,2.6352 85.2616,5.5892 L85.2616,23.1571875" id="Stroke-13"></path>
                    <path d="M0.5118,47.0744 L49.5000011,47.0744" id="Stroke-15"></path>
                </g>
            </g>
            <path d="M24,72.0089998 C29.1572839,72.0089998 29.8427161,72.009 35,72.009 L31.667,68.036 C29.99,66.036 28.737,63.715 27.984,61.216 L27.016,58" id="Page-1" stroke="#FFFFFF" stroke-width="1.25" transform="translate(29.500000, 65.004500) scale(-1, 1) translate(-29.500000, -65.004500) "></path>
        </g>
    </g>
</svg>