<svg id="Layer_1" data-name="Layer 1" xmlns="http://www.w3.org/2000/svg" viewBox="0 0 333.77 271.63"><defs><style>.cls-1,.cls-2{fill:none;stroke-miterlimit:10;}.cls-1{stroke:#fff;stroke-width:4px;}.cls-2{stroke:#c4c6c8;stroke-width:0.75px;}.cls-3{fill:#fff;}</style></defs><title>logo-heart</title><line class="cls-1" x1="331.34" y1="130.35" x2="187.15" y2="134.2"/><path class="cls-2" d="M213.15-119.64" transform="translate(-126.32 317.47)"/><path class="cls-2" d="M208.84-226.14" transform="translate(-126.32 317.47)"/><line class="cls-1" x1="51.67" y1="2.75" x2="38.97" y2="109.65"/><polygon class="cls-3" points="164.52 60.98 185.46 135.61 84.03 197.83 164.52 60.98"/><line class="cls-1" x1="82.51" y1="196.53" x2="82.51" y2="91.33"/><line class="cls-1" x1="165.67" y1="59.09" x2="187.15" y2="134.2"/><line class="cls-1" x1="187.15" y1="134.2" x2="86.83" y2="197.83"/><polygon class="cls-1" points="331.34 130.35 275.55 2.75 165.67 59.09 51.73 2.75 2.38 125.37 165.69 268.99 331.34 130.35"/><line class="cls-1" x1="187.15" y1="134.2" x2="165.69" y2="268.99"/><line class="cls-1" x1="187.15" y1="134.2" x2="243.77" y2="203.65"/><line class="cls-1" x1="257.54" y1="97.96" x2="275.55" y2="0.75"/><line class="cls-1" x1="165.67" y1="59.09" x2="331.34" y2="130.35"/><line class="cls-1" x1="2.38" y1="125.37" x2="165.67" y2="59.09"/><line class="cls-1" x1="165.67" y1="59.09" x2="82.51" y2="196.53"/></svg>