<svg id="Layer_2" data-name="Layer 2" xmlns="http://www.w3.org/2000/svg" xmlns:xlink="http://www.w3.org/1999/xlink" viewBox="0 0 257.64 216.68"><defs><style>.cls-1{fill:none;stroke:#fff;stroke-miterlimit:10;stroke-width:3px;}.cls-2{clip-path:url(#clip-path);}</style><clipPath id="clip-path" transform="translate(-514.27 -278.38)"><path class="cls-1" d="M651.85,339.06l49.83,137.67s-18,16.83-58.43,16.83h0c-40.61,0-58.43-16.83-58.43-16.83L634.7,339.06"/></clipPath></defs><title>angel</title><path class="cls-1" d="M632.21,337.26c4,3.59,7.79,5.49,11,5.49s7-1.92,11.1-5.54l2.86-3c1.41-1.5,2.63-2.81,2.72-2.92a15.9,15.9,0,0,0,3-7.35l0-.16L663,322c0-.13,0-5.57,0-5.7v-8.63c0-6.67-6.17-12.09-12.85-12.09H636.32c-6.67,0-12.85,5.42-12.85,12.09v14.53l0.12,1.52,0,0.16a15.9,15.9,0,0,0,3,7.35c0.13,0.17,1.31,1.45,2.55,2.78Z" transform="translate(-514.27 -278.38)"/><ellipse class="cls-1" cx="128.97" cy="4.98" rx="21.1" ry="3.48"/><g class="cls-2"><path class="cls-1" d="M701.69,462.73s-18,16.83-58.43,16.83h0c-40.61,0-58.43-16.83-58.43-16.83" transform="translate(-514.27 -278.38)"/></g><path class="cls-1" d="M651.85,339.06l49.83,137.67s-18,16.83-58.43,16.83h0c-40.61,0-58.43-16.83-58.43-16.83L634.7,339.06" transform="translate(-514.27 -278.38)"/><path class="cls-1" d="M695.77,376.37c18.59,42.33,49.8,19.9,43.64,23.62" transform="translate(-514.27 -278.38)"/><path class="cls-1" d="M707.31,395.22c6.16-3.71-25,18.71-43.64-23.62l-5.4-14.8s12.94-34.37,31.5-39.8,44.55,14.95,80.16,84.67c0,0-26.3,15.86-43.64-23.62" transform="translate(-514.27 -278.38)"/><path class="cls-1" d="M590.41,376.37c-18.59,42.33-49.8,19.9-43.64,23.62" transform="translate(-514.27 -278.38)"/><path class="cls-1" d="M578.87,395.22c-6.16-3.71,25,18.71,43.64-23.62l5.4-14.8S615,322.44,596.41,317,551.86,332,516.25,401.68c0,0,26.3,15.86,43.64-23.62" transform="translate(-514.27 -278.38)"/></svg>