<?xml version="1.0" encoding="UTF-8" standalone="no"?>
<svg width="258px" height="219px" viewBox="0 0 258 219" version="1.1" xmlns="http://www.w3.org/2000/svg" xmlns:xlink="http://www.w3.org/1999/xlink">
    <!-- Generator: Sketch 3.7 (28169) - http://www.bohemiancoding.com/sketch -->
    <title>Page 1</title>
    <desc>Created with Sketch.</desc>
    <defs>
        <filter x="-50%" y="-50%" width="200%" height="200%" filterUnits="objectBoundingBox" id="filter-1">
            <feOffset dx="0" dy="1" in="SourceAlpha" result="shadowOffsetOuter1"></feOffset>
            <feColorMatrix values="0 0 0 0 0.143729613   0 0 0 0 0.00459696892   0 0 0 0 0.155133929  0 0 0 1 0" type="matrix" in="shadowOffsetOuter1" result="shadowMatrixOuter1"></feColorMatrix>
            <feMerge>
                <feMergeNode in="shadowMatrixOuter1"></feMergeNode>
                <feMergeNode in="SourceGraphic"></feMergeNode>
            </feMerge>
        </filter>
    </defs>
    <g id="Page-1" stroke="none" stroke-width="1" fill="none" fill-rule="evenodd">
        <g filter="url(#filter-1)" transform="translate(1.000000, 1.000000)" stroke="#FFFFFF" stroke-width="3">
            <path d="M246.1865,172.5562 L9.4995,172.5562 C4.5495,172.5562 0.4995,168.5062 0.4995,163.5562 L0.4995,9.5002 C0.4995,4.5502 4.5495,0.5002 9.4995,0.5002 L246.1865,0.5002 C251.1365,0.5002 255.1865,4.5502 255.1865,9.5002 L255.1865,163.5562 C255.1865,168.5062 251.1365,172.5562 246.1865,172.5562 L246.1865,172.5562 Z" id="Stroke-1"></path>
            <path d="M0.5,141.312 L255.187,141.312" id="Stroke-3"></path>
            <path d="M101.2455,172.5562 L98.5125,182.0532 C96.3195,189.6732 92.5825,196.7612 87.5335,202.8752 L77.8085,214.6552 L177.8775,214.6552 L167.8615,202.7152 C162.8205,196.7052 159.0545,189.7322 156.7935,182.2202 L153.8835,172.5562 L101.2455,172.5562 L101.2455,172.5562 Z" id="Stroke-5"></path>
            <path d="M132.9373,155.4623 C132.9373,158.2753 130.6563,160.5563 127.8433,160.5563 C125.0303,160.5563 122.7493,158.2753 122.7493,155.4623 C122.7493,152.6493 125.0303,150.3683 127.8433,150.3683 C130.6563,150.3683 132.9373,152.6493 132.9373,155.4623 L132.9373,155.4623 Z" id="Stroke-7"></path>
            <path d="M221.6444,83.5253 L180.0174,83.5253 C175.0914,83.5253 169.9874,78.7943 168.6774,74.6183 L167.4704,69.4603 C166.1604,65.2833 164.2794,65.3393 163.2904,69.5843 L160.9134,79.7933 C159.9254,84.0383 158.3414,84.0323 157.3934,79.7803 L153.3734,61.7353 C152.4264,57.4833 151.0314,57.5073 150.2734,61.7883 L138.8464,121.0813 C138.0884,125.3623 137.2204,125.3283 136.9174,121.0033 L129.0604,19.2613 C128.7574,14.9373 128.1404,14.9343 127.6874,19.2483 L120.3754,83.7433 C119.9224,88.0573 118.3674,88.2203 116.9184,84.0793 L110.9894,67.1753 C109.5404,63.0343 107.6694,63.2213 106.8314,67.4903 L100.9214,97.7543 C100.0834,102.0243 98.0614,102.5013 96.4284,98.4133 L92.6624,89.6453 C91.0294,85.5573 85.6624,83.5253 80.7354,83.5253 L34.0424,83.5253" id="Stroke-9"></path>
        </g>
    </g>
</svg>