<svg id="Layer_1" data-name="Layer 1" xmlns="http://www.w3.org/2000/svg" viewBox="0 0 74.81 86.18"><defs><style>.cls-1{fill:#fff;}</style></defs><title>pulse_4_middle</title><path class="cls-1" d="M39.57,86.18h0c-0.46,0-.76-0.51-0.91-2.93L33.18,3c0-.44-0.06-0.8-0.09-1.09C33.05,2.16,33,2.52,33,3L27.9,53.86c-0.18,1.93-.6,2.9-1.28,3S25.33,56,24.76,54.2L20.65,40.86c-0.52-1.69-1-2.11-1.21-2.1s-0.63.44-1,2.3l-4.1,23.88c-0.33,1.93-.94,3-1.76,3.05s-1.49-.77-2.09-2.47L7.93,58.61C6.82,55.44,3.14,54,0,54V53.27c3.41,0,7.4,1.57,8.64,5.08l2.61,6.91c0.56,1.6,1.06,2,1.32,2s0.76-.56,1.08-2.43l4.1-23.88c0.33-1.89.88-2.88,1.65-2.93s1.42,0.84,2,2.63L25.48,54c0.61,2,1.06,2.11,1.06,2.11s0.41-.22.6-2.3l5.08-50.9C32.48,0.19,32.74,0,33.12,0s0.64,0.21.81,2.91L39.38,83.2A13,13,0,0,0,39.59,85,13,13,0,0,0,40,83.23l7.93-46.79c0.4-2.55,1-2.85,1.39-2.86s1,0.27,1.5,2.81l2.79,14.24c0.34,1.73.74,2.19,0.85,2.22s0.51-.48.86-2.21L57,42.57c0.38-1.86,1-2.81,1.72-2.84h0c0.75,0,1.38.91,1.88,2.72l0.84,4.09c0.88,3.16,4.27,6.73,7.51,6.73h5.87V54H68.93c-3.56,0-7.28-3.86-8.24-7.3l-0.84-4.09c-0.47-1.69-1-2.14-1.15-2.14h0c-0.19,0-.65.48-1,2.24L56,50.78c-0.39,1.89-.91,2.81-1.6,2.81h0c-0.69,0-1.21-.93-1.58-2.82L50.07,36.53c-0.36-1.86-.72-2.17-0.78-2.2a5.29,5.29,0,0,0-.64,2.23L40.72,83.35C40.35,85.69,40,86.18,39.57,86.18Z" transform="translate(0 0)"/></svg>