<svg id="Layer_1" data-name="Layer 1" xmlns="http://www.w3.org/2000/svg" viewBox="0 0 85 99.64"><defs><style>.cls-1{fill:#fff;}</style></defs><title>pulse_3_middle</title><path class="cls-1" d="M48,99.64h0c-0.39,0-.7-0.24-0.84-2.93L41.56,3q0-.34,0-0.62c0,0.19,0,.4-0.06.63L36.25,62.65c-0.16,2-.55,2.91-1.23,3s-1.26-.76-1.84-2.63L29.07,49.66c-0.54-1.75-1-2.1-1.18-2.1s-0.6.45-.9,2.31L23.24,73.73c-0.3,1.9-1,3-1.86,3.14-0.6.09-1.52-.24-2.48-2.26l-4-7.92c-1.43-3-5.33-4.38-8.55-4.38H0V61.56H6.35c3.46,0,7.65,1.48,9.22,4.8l4,7.92c0.69,1.45,1.33,1.9,1.7,1.85s0.95-.75,1.23-2.52l3.76-23.85c0.3-1.9.83-2.89,1.58-2.94s1.4,0.83,1.95,2.63L33.9,62.78c0.59,1.93,1,2.1,1,2.11s0.39-.27.55-2.3L40.71,2.9C40.94,0.13,41.14,0,41.55,0s0.61,0.28.76,2.92l5.54,93.75c0,0.77.1,1.29,0.15,1.64,0.08-.34.18-0.85,0.28-1.62l7.65-51.94c0.35-2.55.93-2.87,1.33-2.89s1,0.25,1.55,2.78L61.9,58.92c0.38,1.76.87,2.23,1.07,2.24s0.72-.43,1.22-2.17L66,52.79c0.45-1.59,1.08-2.37,1.86-2.31,1.17,0.09,2.06,2.12,2.31,4,0.46,3.44,3,7.09,6.72,7.09H85v0.75H76.84c-4.18,0-7-4-7.46-7.74-0.24-1.8-1.08-3.3-1.62-3.34-0.26,0-.7.43-1.08,1.76L64.91,59.2c-0.52,1.82-1.19,2.7-2,2.71s-1.38-1-1.78-2.83L58.09,44.8c-0.4-1.85-.76-2.15-0.82-2.19a5.28,5.28,0,0,0-.6,2.24L49,96.79C48.67,99.37,48.35,99.64,48,99.64Z" transform="translate(0 0)"/></svg>