<?xml version="1.0" encoding="utf-8"?>
<!-- Generator: Adobe Illustrator 19.2.0, SVG Export Plug-In . SVG Version: 6.00 Build 0)  -->
<svg version="1.1" xmlns="http://www.w3.org/2000/svg" xmlns:xlink="http://www.w3.org/1999/xlink" x="0px" y="0px"
	 viewBox="0 0 85 171" style="enable-background:new 0 0 85 171;" xml:space="preserve">
<style type="text/css">
	.st0{display:none;}
	.st1{display:inline;}
	.st2{opacity:0.4;fill:#FFFFFF;enable-background:new    ;}
	.st3{fill:#FFFFFF;}
	.st4{display:inline;fill:#FFFFFF;}
</style>
<g id="Layer_2" class="st0">
	<rect class="st1" width="85" height="171"/>
</g>
<g id="Layer_1">
	<g>
		<path class="st2" d="M70.2,85.6l-0.8-4.1c-0.5-1.7-1-2.2-1.2-2.2s-0.8,0.5-1.2,2.2l-2.1,8.2c-0.5,1.8-1.1,2.8-1.9,2.8
			s-1.4-0.9-1.8-2.8l-3.8-15.9c-0.1-0.7-0.4-1.5-0.8-2.1c-0.3,0.7-0.4,1.4-0.4,2.2l-7.3,84c-0.4,2.7-0.6,2.9-1,2.9s-0.6-0.1-0.7-2.9
			L41.5,4.7l-5.4,89c-0.2,2.5-0.6,2.9-1,3s-1-0.2-1.6-2.7l-3.7-14.2c-0.5-1.8-1-2.2-1.1-2.2s-0.6,0.4-1,2.3L23,103.8
			c-0.4,1.9-1.1,3-2,3.1c-0.6,0.1-1.6-0.3-2.5-2.3l-3.6-7.3c-1.4-3-5.3-4.4-8.5-4.4H0L0,171h85l0-78.1h-6.6
			C74.8,92.9,71.1,89,70.2,85.6z"/>
		<path class="st3" d="M70.8,85.4L70,81.3c-0.5-1.8-1.2-2.7-2-2.7s-1.4,1-1.9,2.8L64,89.6c-0.4,1.7-0.9,2.2-1.1,2.2
			c-0.2,0-0.7-0.4-1.1-2.2L58,73.7c-0.6-2.5-1.2-2.7-1.6-2.7c-0.4,0-0.9,0.3-1.1,2.9L48,157.7L42.2,2.9C42.1,0.1,42,0,41.6,0
			S41,0.1,40.9,2.8l-5.5,90.8c0,0.7-0.1,1.5-0.4,2.2c-0.4-0.7-0.7-1.4-0.8-2.1l-3.7-14.2c-0.5-1.8-1.1-2.8-1.8-2.7
			c-0.7,0.1-1.3,1-1.7,2.9l-4.8,23.9c-0.4,1.8-0.9,2.5-1.4,2.5s-1.1-0.7-1.7-1.9l-3.6-7.3c-1.6-3.3-5.7-4.8-9.2-4.8H0v0.8h6.4
			c3.2,0,7.1,1.4,8.5,4.4l3.6,7.3c0.9,2,1.9,2.4,2.5,2.3c0.9-0.1,1.6-1.2,2-3.1l4.7-23.9c0.4-1.9,0.9-2.3,1-2.3s0.6,0.4,1.1,2.2
			L33.5,94c0.6,2.5,1.2,2.8,1.6,2.7c0.4-0.1,0.8-0.5,1-3l5.4-89l5.7,153.2c0.1,2.8,0.3,2.9,0.7,2.9s0.6-0.2,1-2.9l7.3-84
			c0-0.8,0.1-1.5,0.4-2.2c0.4,0.6,0.7,1.4,0.8,2.1l3.8,15.9c0.4,1.9,1,2.8,1.8,2.8s1.4-1,1.9-2.8l2.1-8.2c0.4-1.7,1-2.2,1.2-2.2
			s0.7,0.5,1.2,2.2l0.8,4.1c0.9,3.4,4.6,7.3,8.2,7.3H85v-0.8h-6.7C75.1,92.1,71.7,88.6,70.8,85.4z"/>
		<path class="st3" d="M70.8,85.4L70,81.3c-0.5-1.8-1.2-2.7-2-2.7s-1.4,1-1.9,2.8L64,89.6c-0.4,1.7-0.9,2.2-1.1,2.2
			c-0.2,0-0.7-0.4-1.1-2.2L58,73.7c-0.6-2.5-1.2-2.7-1.6-2.7c-0.4,0-0.9,0.3-1.1,2.9L48,157.7L42.2,2.9C42.1,0.1,42,0,41.6,0
			S41,0.1,40.9,2.8l-5.5,90.8c0,0.7-0.1,1.5-0.4,2.2c-0.4-0.7-0.7-1.4-0.8-2.1l-3.7-14.2c-0.5-1.8-1.1-2.8-1.8-2.7
			c-0.7,0.1-1.3,1-1.7,2.9l-4.8,23.9c-0.4,1.8-0.9,2.5-1.4,2.5s-1.1-0.7-1.7-1.9l-3.6-7.3c-1.6-3.3-5.7-4.8-9.2-4.8H0v0.8h6.4
			c3.2,0,7.1,1.4,8.5,4.4l3.6,7.3c0.9,2,1.9,2.4,2.5,2.3c0.9-0.1,1.6-1.2,2-3.1l4.7-23.9c0.4-1.9,0.9-2.3,1-2.3s0.6,0.4,1.1,2.2
			L33.5,94c0.6,2.5,1.2,2.8,1.6,2.7c0.4-0.1,0.8-0.5,1-3l5.4-89l5.7,153.2c0.1,2.8,0.3,2.9,0.7,2.9s0.6-0.2,1-2.9l7.3-84
			c0-0.8,0.1-1.5,0.4-2.2c0.4,0.6,0.7,1.4,0.8,2.1l3.8,15.9c0.4,1.9,1,2.8,1.8,2.8s1.4-1,1.9-2.8l2.1-8.2c0.4-1.7,1-2.2,1.2-2.2
			s0.7,0.5,1.2,2.2l0.8,4.1c0.9,3.4,4.6,7.3,8.2,7.3H85v-0.8h-6.7C75.1,92.1,71.7,88.6,70.8,85.4z"/>
	</g>
</g>
<g id="Layer_3" class="st0">
	<path class="st4" d="M48,119.3L48,119.3c-0.4,0-0.7-0.2-0.9-2.9l-5.5-67.8c0-0.6-0.1-1-0.1-1.3c0,0.3-0.1,0.7-0.2,1.3l-5,41.1
		c-0.2,1.9-0.6,2.9-1.3,3s-1.4-0.8-2-2.6l-3.8-11.5c-0.6-1.6-1.1-2-1.3-2s-0.6,0.5-0.9,2.3l-3.8,25.9c-0.3,1.9-0.9,3-1.7,3.1
		s-1.5-0.8-2.1-2.4l-3.1-8c-1.1-3.2-4.8-4.6-8-4.6L0,93v-0.7l8.5-0.2c3.4,0,7.4,1.6,8.7,5.1l3,8c0.6,1.6,1.1,2,1.3,2s0.7-0.6,1-2.5
		l3.9-25.9c0.3-1.9,0.8-2.9,1.6-3s1.4,0.8,2,2.6l3.9,11.4c0.6,1.8,1.1,2.1,1.2,2.1c0.1,0,0.5-0.4,0.7-2.3l5-41.1
		c0.2-2.7,0.5-2.9,0.9-2.9s0.7,0.2,0.8,2.9l5.4,67.8c0,0.6,0.1,1.2,0.2,1.8c0.1-0.6,0.2-1.1,0.3-1.7L55,76.8
		c0.3-1.9,0.7-2.9,1.5-2.9c0.7,0,1.3,0.8,1.9,2.7l3.8,13c0.5,1.7,1,2.2,1.2,2.2s0.7-0.5,1-2.2l1.2-5.6c0.2-0.9,0.6-2.7,1.8-2.9
		c1.9-0.2,2.4,2.3,2.8,4.2c0.1,0.5,0.2,0.9,0.3,1.4c0.9,2.5,2.7,5.4,5.5,5.4l9.1,0v0.8l-9.1,0c-2.6,0-4.7-2-6.2-5.9
		c-0.2-0.5-0.3-1-0.4-1.5c-0.4-1.9-0.8-3.7-1.9-3.6c-0.7,0.1-1.1,1.7-1.2,2.3l-1.1,5.5c-0.4,1.9-1,2.8-1.8,2.8c-0.8,0-1.4-0.9-2-2.7
		l-3.8-13c-0.5-1.8-1-2.2-1.1-2.1s-0.5,0.4-0.8,2.3l-6.5,39.6C48.8,119,48.4,119.3,48,119.3z"/>
</g>
</svg>
